<svg xmlns="http://www.w3.org/2000/svg" width="30" height="30" viewBox="0 0 30 30">
  <path id="Icon_awesome-buffer" data-name="Icon awesome-buffer" d="M30.984,25.6l-14.248,6.55a1.452,1.452,0,0,1-1.064,0L1.424,25.6c-.29-.134-.29-.354,0-.488l3.412-1.566a1.455,1.455,0,0,1,1.065,0l9.771,4.487a1.444,1.444,0,0,0,1.064,0l9.771-4.487a1.453,1.453,0,0,1,1.064,0l3.412,1.569C31.277,25.245,31.277,25.464,30.984,25.6Zm0-9.143-3.412-1.569a1.453,1.453,0,0,0-1.064,0l-9.771,4.492a1.458,1.458,0,0,1-1.064,0L5.9,14.887a1.455,1.455,0,0,0-1.065,0L1.424,16.456c-.29.134-.29.354,0,.49l14.248,6.549a1.452,1.452,0,0,0,1.064,0l14.248-6.549c.294-.135.294-.355,0-.49ZM1.424,8.841l14.248,6.046a1.568,1.568,0,0,0,1.064,0L30.984,8.841c.29-.125.29-.327,0-.451L16.735,2.344a1.553,1.553,0,0,0-1.064,0L1.424,8.389c-.294.124-.294.327,0,.451Z" transform="translate(-1.204 -2.25)"/>
</svg>
