<svg xmlns="http://www.w3.org/2000/svg" width="35" height="30" viewBox="0 0 35 30">
  <path id="Icon_awesome-connectdevelop" data-name="Icon awesome-connectdevelop" d="M35.212,15.187l-3.2-5.424a.99.99,0,0,0,.12-.452.965.965,0,0,0-.94-.938L27.658,2.38a.96.96,0,0,0,.068-.3A.976.976,0,0,0,26,1.476H19.2a.944.944,0,0,0-1.47,0H10.962a.976.976,0,0,0-1.726.6.865.865,0,0,0,.068.3L5.732,8.458a.936.936,0,0,0-.581.854c0,.033.017.067.017.1l-3.4,5.759a.958.958,0,0,0-.8.937.971.971,0,0,0,.769.937l3.521,5.96a.859.859,0,0,0-.051.3.939.939,0,0,0,.769.921l3.3,5.608a1.062,1.062,0,0,0-.068.335.964.964,0,0,0,.974.954.951.951,0,0,0,.735-.335h6.819a.974.974,0,0,0,1.47,0h6.836a.972.972,0,0,0,1.675-.653.681.681,0,0,0-.051-.268l3.3-5.642a.939.939,0,0,0,.769-.921.93.93,0,0,0-.051-.3l3.5-5.96a.959.959,0,0,0,.786-.937.941.941,0,0,0-.752-.921ZM9.885,28.3,7.1,23.558H9.885Zm0-5.24H7.1a1.017,1.017,0,0,0-.085-.2l2.871-2.963Zm0-3.9L6.672,22.487a1.617,1.617,0,0,0-.256-.1L2.861,16.359a.639.639,0,0,0,.034-.251.867.867,0,0,0-.017-.218l3.315-5.625a1.092,1.092,0,0,0,.5-.167l3.2,3.248v5.809Zm0-6.4L6.963,9.8A.9.9,0,0,0,7.1,9.311c0-.017-.017-.05-.017-.067l2.8-.988v4.5Zm0-5.039L7.1,8.709,9.885,3.988Zm20.832,2.444.051.084L28.513,20.7l-4.067-4.2L30.7,10.148l.017.017ZM18.7,22.319l.735.737H17.986Zm-.017-.7-5.315-5.34L18.447,11l5.3,5.474Zm.342.368,5.059-5.139L28.393,21.3l-.376,1.758H20.1ZM26.274,2.9a.868.868,0,0,0,.222.084l3.691,6.295v.033a.9.9,0,0,0,.137.485L24.1,16.125l-5.3-5.474Zm-.581-.134-7.246,7.517-3.64-3.767L25.42,2.766h.274Zm-7.878,0a.921.921,0,0,0,1.3,0H23.9L14.431,6.114,11.184,2.766h6.631ZM10.4,3.117l.068-.134q.086-.022.171-.05L13.9,6.3,10.4,7.537Zm0,4.955L14.277,6.7l3.811,3.951-5.076,5.257L10.4,13.279V8.073Zm0,5.792,2.324,2.36L10.4,18.619V13.865Zm0,5.491,2.683-2.779,5.281,5.374-1.094,1.1H10.4v-3.7Zm.444,10.128a.922.922,0,0,0-.376-.218l-.068-.1V23.558h6.374l-5.845,5.926h-.085Zm8.289,0a.963.963,0,0,0-1.333,0H11.645l5.845-5.926h2.444l5.845,5.926H19.131Zm7.656-.737-.273.469a.87.87,0,0,0-.222.084L20.6,23.558h7.3l-1.111,5.19Zm.82-1.389.82-3.8h1.4Zm2.222-4.3h-1.3l.29-1.322,1.094,1.138A.613.613,0,0,0,29.829,23.056Zm4.221-6.713-3.538,6.044a1.74,1.74,0,0,0-.256.117L28.94,21.13l2.2-10.245,2.922,4.955a1.249,1.249,0,0,0-.051.268,1.108,1.108,0,0,0,.034.234Z" transform="translate(-0.964 -1.125)"/>
</svg>
